<svg width="32" height="32" viewBox="0 0 32 32" xmlns="http://www.w3.org/2000/svg">
    <defs>
        <linearGradient id="waterGradient" x1="0%" y1="0%" x2="0%" y2="100%">
            <stop offset="0%" style="stop-color:#3b82f6;stop-opacity:1" />
            <stop offset="50%" style="stop-color:#1e40af;stop-opacity:1" />
            <stop offset="100%" style="stop-color:#1e3a8a;stop-opacity:1" />
        </linearGradient>
        <linearGradient id="foamGradient" x1="0%" y1="0%" x2="100%" y2="0%">
            <stop offset="0%" style="stop-color:#e0f2fe;stop-opacity:0.8" />
            <stop offset="50%" style="stop-color:#ffffff;stop-opacity:1" />
            <stop offset="100%" style="stop-color:#e0f2fe;stop-opacity:0.8" />
        </linearGradient>
    </defs>
    
    <!-- Background circle -->
    <circle cx="16" cy="16" r="15" fill="#0c4a6e" opacity="0.1"/>
    
    <!-- Main water body -->
    <ellipse cx="16" cy="22" rx="12" ry="8" fill="url(#waterGradient)" opacity="0.8"/>
    
    <!-- Wave 1 -->
    <path d="M 4 18 Q 8 16, 12 18 T 20 18 Q 24 16, 28 18 L 28 32 L 4 32 Z" 
          fill="url(#waterGradient)" opacity="0.7"/>
    
    <!-- Wave 2 -->
    <path d="M 2 20 Q 6 18, 10 20 T 18 20 Q 22 18, 26 20 L 26 32 L 2 32 Z" 
          fill="#2563eb" opacity="0.9"/>
    
    <!-- Foam details -->
    <path d="M 8 18 Q 10 17, 12 18" 
          stroke="url(#foamGradient)" stroke-width="2" fill="none" stroke-linecap="round"/>
    <path d="M 20 18 Q 22 17, 24 18" 
          stroke="url(#foamGradient)" stroke-width="2" fill="none" stroke-linecap="round"/>
    
    <!-- Alert symbol -->
    <g transform="translate(16, 8)">
        <path d="M 0 -6 L 5 3 L -5 3 Z" fill="#dc2626" opacity="0.9"/>
        <path d="M 0 -5 L 4 2 L -4 2 Z" fill="#ef4444" opacity="0.95"/>
        <rect x="-1" y="-2" width="2" height="3" rx="1" fill="#dc2626"/>
        <circle cx="0" cy="0" r="1" fill="#dc2626"/>
    </g>
</svg>
